<?xml version="1.0" standalone="no"?>
<!DOCTYPE svg PUBLIC "-//W3C//DTD SVG 20010904//EN"
 "http://www.w3.org/TR/2001/REC-SVG-20010904/DTD/svg10.dtd">
<svg version="1.0" xmlns="http://www.w3.org/2000/svg"
 width="1600.000000pt" height="1600.000000pt" viewBox="0 0 1600.000000 1600.000000"
 preserveAspectRatio="xMidYMid meet">
<metadata>
Created by potrace 1.14, written by Peter Selinger 2001-2017
</metadata>
<g transform="translate(0.000000,1600.000000) scale(0.100000,-0.100000)"
fill="#000000" stroke="none">
<path d="M0 8000 l0 -8000 8000 0 8000 0 0 8000 0 8000 -8000 0 -8000 0 0
-8000z m7610 4314 l3495 -3496 -35 -29 c-19 -16 -138 -104 -265 -196 -126 -92
-282 -205 -345 -253 -63 -47 -189 -140 -280 -205 -309 -222 -445 -327 -458
-351 -7 -14 -77 -72 -155 -130 -78 -58 -147 -115 -154 -127 -17 -30 -16 -72 3
-109 14 -26 183 -262 575 -798 50 -69 107 -147 127 -175 19 -27 -865 850
-1966 1950 l-2001 1999 -3 511 c-3 502 -3 511 -25 550 -27 51 -65 87 -363 345
-135 117 -375 326 -535 465 -725 630 -928 806 -960 831 -65 50 -154 42 -212
-19 -46 -48 -63 -124 -70 -312 -3 -88 -6 -161 -7 -162 -12 -14 -509 473 -1756
1721 l-1485 1486 1690 0 1690 0 3495 -3496z m4363 -362 l3857 -3858 0 -1690 0
-1689 -2041 2040 c-1747 1746 -2054 2057 -2127 2155 -96 128 -104 137 -148
145 -24 5 -738 714 -3405 3381 l-3374 3374 1690 0 1690 0 3858 -3858z m2000
2000 l1857 -1858 -2 -1687 -3 -1687 -3545 3545 -3545 3545 1690 0 1690 0 1858
-1858z m1857 313 c0 -850 -1 -1545 -3 -1545 -1 0 -697 695 -1547 1545 l-1545
1545 1548 0 1547 0 0 -1545z m-12445 -3415 l7 -1695 -1611 1610 -1611 1610 0
1690 0 1690 1604 -1605 1605 -1605 6 -1695z m5 -4005 l0 -1690 -1610 1610
-1610 1610 0 1690 0 1690 1610 -1610 1610 -1610 0 -1690z m4034 1655 l1269
-1270 -1272 0 -1271 0 0 1270 c0 699 1 1270 3 1270 1 0 573 -572 1271 -1270z
m-1392 -8298 l-1687 -2 -2087 2087 -2088 2088 0 1690 0 1690 3774 -3775 3775
-3775 -1687 -3z m5090 7321 c51 -71 110 -151 131 -180 l37 -51 -28 -20 -28
-21 -96 127 c-52 70 -112 151 -133 181 l-39 54 23 18 c13 11 27 19 31 19 4 0
50 -57 102 -127z m3176 -1896 l1532 -1534 -2 -1686 -3 -1687 -1998 1998 -1998
1998 565 403 c505 359 616 444 616 470 0 4 53 45 118 91 147 104 156 113 200
180 46 71 52 126 22 177 -32 55 -379 543 -409 576 -55 61 -125 74 -179 35 -18
-13 -102 -74 -189 -136 -86 -63 -161 -116 -167 -118 -12 -4 -218 280 -220 303
0 8 62 61 139 117 77 56 150 117 163 136 19 29 254 210 272 210 3 0 695 -690
1538 -1533z m-266 -5425 l-1687 -2 -2162 2162 c-1190 1190 -2163 2166 -2163
2170 0 5 23 8 51 8 28 0 59 5 70 10 14 8 25 6 44 -6 62 -40 138 -35 196 13 42
36 59 80 59 153 l0 60 141 0 c77 0 149 5 160 10 14 8 25 6 44 -6 62 -40 138
-35 196 13 62 52 59 -1 59 1095 l0 1002 3340 -3339 3339 -3340 -1687 -3z
m-4478 2168 l2171 -2170 -1690 0 -1690 0 -2162 2162 c-1190 1190 -2163 2166
-2163 2170 0 5 757 8 1681 8 l1682 0 2171 -2170z m-7522 -2168 l-1687 -2 -87
87 -88 88 0 1690 0 1690 1774 -1775 1775 -1775 -1687 -3z"/>
</g>
</svg>
